<svg width="512" height="512" viewBox="0 0 512 512"  xmlns="http://www.w3.org/2000/svg">
<g clip-path="url(#clip0_2_356)">
<!-- <path d="M33.3913 311.652H75.0637C78.5697 323.061 83.1332 334.08 88.6873 344.576L59.2473 374.027C46.2247 387.05 46.2247 408.242 59.2473 421.265L90.7464 452.775C103.769 465.786 124.961 465.786 137.984 452.775L167.435 423.335C177.92 428.889 188.95 433.453 200.359 436.959V478.609C200.359 497.018 215.341 512 233.75 512H278.272C296.682 512 311.663 497.018 311.663 478.609V436.936C323.072 433.43 334.102 428.867 344.587 423.313L374.027 452.764C386.649 465.375 408.687 465.352 421.265 452.764L452.764 421.265C459.064 414.965 462.536 406.573 462.536 397.646C462.536 388.708 459.064 380.327 452.764 374.027L423.324 344.576C428.878 334.091 433.441 323.061 436.947 311.652H478.609C497.018 311.652 512 296.671 512 278.261V233.739C512 215.329 497.018 200.348 478.609 200.348H436.936C433.441 188.939 428.867 177.92 423.313 167.424L452.753 137.984C459.053 131.684 462.525 123.292 462.525 114.354C462.525 105.427 459.053 97.0351 452.753 90.7353L421.254 59.2362C408.665 46.6477 386.627 46.6143 374.016 59.2362L344.576 88.6762C334.091 83.1221 323.061 78.5586 311.652 75.0525V33.3913C311.652 14.9816 296.671 0 278.261 0H233.739C215.329 0 200.348 14.9816 200.348 33.3913V75.0637C188.939 78.5697 177.92 83.1332 167.424 88.6873L137.973 59.2473C124.95 46.2247 103.758 46.2247 90.7353 59.2473L59.225 90.7464C46.2136 103.769 46.2136 124.961 59.225 137.984L88.665 167.435C83.111 177.92 78.5475 188.95 75.0414 200.359H33.3913C14.9816 200.359 0 215.341 0 233.75V278.272C0 296.671 14.9816 311.652 33.3913 311.652ZM22.2609 233.739C22.2609 227.606 27.2584 222.609 33.3913 222.609H83.4783C88.5537 222.609 92.9837 219.169 94.2525 214.261C98.1816 199.068 104.181 184.565 112.095 171.164C114.677 166.79 113.976 161.224 110.381 157.64L74.9857 122.246C70.6449 117.905 70.6449 110.837 74.9857 106.485L106.485 74.9857C110.837 70.6337 117.894 70.6449 122.246 74.9857L157.64 110.381C161.235 113.976 166.79 114.688 171.164 112.095C184.565 104.192 199.057 98.1816 214.261 94.2525C219.169 92.9837 222.609 88.5537 222.609 83.4783V33.3913C222.609 27.2584 227.606 22.2609 233.739 22.2609H278.261C284.405 22.2609 289.391 27.2584 289.391 33.3913V83.4783C289.391 88.5537 292.831 92.9837 297.739 94.2525C312.943 98.1816 327.446 104.192 340.825 112.095C345.21 114.677 350.776 113.987 354.36 110.381L389.754 74.9857C393.951 70.7784 401.33 70.7896 405.515 74.9857L437.014 106.485C439.107 108.577 440.264 111.382 440.264 114.365C440.264 117.348 439.107 120.153 437.014 122.246L401.619 157.64C398.035 161.235 397.323 166.801 399.905 171.164C407.819 184.565 413.818 199.057 417.759 214.261C419.016 219.169 423.446 222.609 428.522 222.609H478.609C484.753 222.609 489.739 227.606 489.739 233.739V278.261C489.739 284.394 484.753 289.391 478.609 289.391H428.522C423.446 289.391 419.016 292.831 417.748 297.739C413.807 312.932 407.808 327.435 399.894 340.836C397.323 345.21 398.024 350.776 401.608 354.36L437.003 389.766C439.096 391.858 440.253 394.652 440.253 397.646C440.253 400.64 439.096 403.434 437.003 405.526L405.504 437.025C401.319 441.21 393.939 441.21 389.743 437.025L354.349 401.631C350.765 398.035 345.199 397.345 340.814 399.917C327.435 407.819 312.932 413.83 297.728 417.759C292.831 419.016 289.391 423.446 289.391 428.522V478.609C289.391 484.742 284.405 489.739 278.261 489.739H233.739C227.606 489.739 222.609 484.742 222.609 478.609V428.522C222.609 423.446 219.169 419.016 214.261 417.748C199.068 413.818 184.565 407.819 171.164 399.905C169.405 398.859 167.457 398.358 165.51 398.358C162.627 398.358 159.777 399.471 157.629 401.619L122.234 437.014C117.882 441.355 110.826 441.355 106.474 437.014L74.9746 405.515C70.6226 401.163 70.6226 394.095 74.9746 389.754L110.369 354.36C113.965 350.765 114.666 345.199 112.083 340.836C104.181 327.435 98.1704 312.943 94.2414 297.739C92.9837 292.831 88.5537 289.391 83.4783 289.391H33.3913C27.2584 289.391 22.2609 284.394 22.2609 278.261V233.739Z"/> -->
<!-- <path d="M256 356.174C311.24 356.174 356.174 311.229 356.174 256C356.174 200.771 311.24 155.826 256 155.826C200.771 155.826 155.826 200.771 155.826 256C155.826 311.229 200.771 356.174 256 356.174ZM256 178.087C298.952 178.087 333.913 213.037 333.913 256C333.913 298.963 298.952 333.913 256 333.913C213.037 333.913 178.087 298.963 178.087 256C178.087 213.037 213.037 178.087 256 178.087Z" /> -->
</g>
<defs>
<style>.cls-1{stroke:#000;stroke-width:25px; }</style>
<clipPath id="clip0_2_356">
<rect width="512" height="512" />
</clipPath>
</defs>
<path class="cls-1" fill="transparent" d="M500.87 233.739V278.261C500.87 290.504 490.852 300.522 478.609 300.522H428.522C424.292 316.884 417.836 332.355 409.489 346.49L444.883 381.885C453.565 390.567 453.565 404.703 444.883 413.384L413.384 444.884C404.703 453.565 390.567 453.565 381.885 444.884L346.49 409.489C332.355 417.837 316.883 424.292 300.522 428.522V478.609C300.522 490.852 290.504 500.87 278.261 500.87H233.739C221.496 500.87 211.478 490.852 211.478 478.609V428.522C195.116 424.292 179.645 417.837 165.51 409.489L130.115 444.884C121.433 453.565 107.297 453.565 98.6156 444.884L67.1165 413.384C58.4347 404.703 58.4347 390.567 67.1165 381.885L102.511 346.49C94.1634 332.355 87.7078 316.884 83.4782 300.522H33.3912C21.1478 300.522 11.1304 290.504 11.1304 278.261V233.739C11.1304 221.496 21.1478 211.478 33.3912 211.478H83.4782C87.7078 195.117 94.1634 179.645 102.511 165.51L67.1165 130.115C58.4347 121.433 58.4347 107.297 67.1165 98.6157L98.6156 67.1166C107.297 58.4348 121.433 58.4348 130.115 67.1166L165.51 102.511C179.645 94.1635 195.116 87.7079 211.478 83.4783V33.3914C211.478 21.1479 221.496 11.1305 233.739 11.1305H278.261C290.504 11.1305 300.522 21.1479 300.522 33.3914V83.4783C316.883 87.7079 332.355 94.1635 346.49 102.511L381.885 67.1166C390.567 58.4348 404.703 58.4348 413.384 67.1166L444.883 98.6157C453.565 107.297 453.565 121.433 444.883 130.115L409.489 165.51C417.836 179.645 424.292 195.117 428.522 211.478H478.609C490.852 211.478 500.87 221.496 500.87 233.739ZM345.043 256C345.043 206.804 305.196 166.957 256 166.957C206.803 166.957 166.956 206.804 166.956 256C166.956 305.197 206.803 345.044 256 345.044C305.196 345.044 345.043 305.197 345.043 256Z"/>
</svg>
