<svg viewBox="0 0 512 512"  xmlns="http://www.w3.org/2000/svg">
<g clip-path="url(#clip0_2_356)">
</g>
<defs>
<style>.cls-1{stroke:black;stroke-width:10px; }</style>
</defs>
<path class="cls-1" fill="#727272" d="M500.87 233.739V278.261C500.87 290.504 490.852 300.522 478.609 300.522H428.522C424.292 316.884 417.836 332.355 409.489 346.49L444.883 381.885C453.565 390.567 453.565 404.703 444.883 413.384L413.384 444.884C404.703 453.565 390.567 453.565 381.885 444.884L346.49 409.489C332.355 417.837 316.883 424.292 300.522 428.522V478.609C300.522 490.852 290.504 500.87 278.261 500.87H233.739C221.496 500.87 211.478 490.852 211.478 478.609V428.522C195.116 424.292 179.645 417.837 165.51 409.489L130.115 444.884C121.433 453.565 107.297 453.565 98.6156 444.884L67.1165 413.384C58.4347 404.703 58.4347 390.567 67.1165 381.885L102.511 346.49C94.1634 332.355 87.7078 316.884 83.4782 300.522H33.3912C21.1478 300.522 11.1304 290.504 11.1304 278.261V233.739C11.1304 221.496 21.1478 211.478 33.3912 211.478H83.4782C87.7078 195.117 94.1634 179.645 102.511 165.51L67.1165 130.115C58.4347 121.433 58.4347 107.297 67.1165 98.6157L98.6156 67.1166C107.297 58.4348 121.433 58.4348 130.115 67.1166L165.51 102.511C179.645 94.1635 195.116 87.7079 211.478 83.4783V33.3914C211.478 21.1479 221.496 11.1305 233.739 11.1305H278.261C290.504 11.1305 300.522 21.1479 300.522 33.3914V83.4783C316.883 87.7079 332.355 94.1635 346.49 102.511L381.885 67.1166C390.567 58.4348 404.703 58.4348 413.384 67.1166L444.883 98.6157C453.565 107.297 453.565 121.433 444.883 130.115L409.489 165.51C417.836 179.645 424.292 195.117 428.522 211.478H478.609C490.852 211.478 500.87 221.496 500.87 233.739ZM345.043 256C345.043 206.804 305.196 166.957 256 166.957C206.803 166.957 166.956 206.804 166.956 256C166.956 305.197 206.803 345.044 256 345.044C305.196 345.044 345.043 305.197 345.043 256Z"/>
</svg>
